<svg width="129" height="123" viewBox="0 0 129 123" fill="none" xmlns="http://www.w3.org/2000/svg">
<path d="M129 0H0V123L117.533 104.55L129 121.633V0Z" fill="#FB5B11"/>
<path d="M33.7261 49.392C33.6781 49.472 33.6941 49.512 33.7741 49.512H41.3101C41.4701 49.512 41.5501 49.592 41.5501 49.752V50.76C41.5501 50.92 41.4701 51 41.3101 51H31.7341C31.5741 51 31.4941 50.92 31.4941 50.76V49.752C31.4941 49.64 31.5341 49.544 31.6141 49.464C32.1581 48.824 33.3821 47.32 35.2861 44.952L37.0621 42.744C38.5661 40.84 39.3181 39.36 39.3181 38.304C39.3181 37.456 39.0301 36.776 38.4541 36.264C37.8781 35.752 37.1261 35.496 36.1981 35.496C35.2861 35.496 34.5501 35.76 33.9901 36.288C33.4301 36.8 33.1581 37.48 33.1741 38.328V39.072C33.1741 39.232 33.0941 39.312 32.9341 39.312H31.6861C31.5261 39.312 31.4461 39.232 31.4461 39.072V38.112C31.4781 36.88 31.9341 35.888 32.8141 35.136C33.7101 34.384 34.8381 34.008 36.1981 34.008C37.1581 34.008 38.0061 34.192 38.7421 34.56C39.4781 34.928 40.0461 35.44 40.4461 36.096C40.8461 36.736 41.0461 37.464 41.0461 38.28C41.0461 39.64 40.2941 41.28 38.7901 43.2C38.0061 44.208 36.4941 46.064 34.2541 48.768L33.7261 49.392ZM53.6013 37.152C53.7933 37.792 53.8893 38.544 53.8893 39.408V46.896C53.8893 48.208 53.4573 49.256 52.5933 50.04C51.7293 50.808 50.6013 51.192 49.2093 51.192C47.8653 51.192 46.7693 50.816 45.9213 50.064C45.0893 49.296 44.6733 48.304 44.6733 47.088V46.752C44.6733 46.592 44.7533 46.512 44.9133 46.512H46.1373C46.2973 46.512 46.3773 46.592 46.3773 46.752V46.944C46.3773 47.76 46.6413 48.424 47.1693 48.936C47.6973 49.448 48.3773 49.704 49.2093 49.704C50.0733 49.704 50.7853 49.44 51.3453 48.912C51.9053 48.368 52.1853 47.656 52.1853 46.776V43.272C52.1853 43.24 52.1693 43.224 52.1373 43.224C52.1053 43.208 52.0813 43.216 52.0653 43.248C51.3613 44.192 50.3053 44.664 48.8973 44.664C47.8893 44.664 47.0413 44.44 46.3533 43.992C45.6813 43.544 45.1693 42.912 44.8173 42.096C44.4813 41.424 44.3133 40.512 44.3133 39.36C44.3133 38.384 44.4333 37.584 44.6733 36.96C45.0093 36.032 45.5453 35.312 46.2813 34.8C47.0333 34.288 47.9533 34.032 49.0413 34.032C50.1933 34.032 51.1613 34.312 51.9453 34.872C52.7453 35.416 53.2973 36.176 53.6013 37.152ZM49.1133 43.176C49.8173 43.176 50.4093 43.008 50.8893 42.672C51.3853 42.32 51.7293 41.84 51.9213 41.232C52.0973 40.768 52.1853 40.12 52.1853 39.288C52.1853 38.6 52.1133 38.016 51.9693 37.536C51.7773 36.928 51.4333 36.44 50.9373 36.072C50.4413 35.704 49.8333 35.52 49.1133 35.52C48.4253 35.52 47.8333 35.696 47.3373 36.048C46.8413 36.384 46.4893 36.88 46.2813 37.536C46.1053 37.984 46.0173 38.592 46.0173 39.36C46.0173 40.176 46.1213 40.816 46.3293 41.28C46.5213 41.856 46.8573 42.32 47.3373 42.672C47.8173 43.008 48.4093 43.176 49.1133 43.176ZM66.4096 51.192C65.3216 51.192 64.3616 50.984 63.5296 50.568C62.7136 50.152 62.0816 49.568 61.6336 48.816C61.1856 48.048 60.9616 47.168 60.9616 46.176V44.352C60.9616 44.192 61.0416 44.112 61.2016 44.112H62.4256C62.5856 44.112 62.6656 44.192 62.6656 44.352V46.176C62.6656 47.232 63.0016 48.088 63.6736 48.744C64.3616 49.384 65.2736 49.704 66.4096 49.704C67.5296 49.704 68.4336 49.384 69.1216 48.744C69.8096 48.088 70.1536 47.232 70.1536 46.176V34.44C70.1536 34.28 70.2336 34.2 70.3936 34.2H71.6176C71.7776 34.2 71.8576 34.28 71.8576 34.44V46.176C71.8576 47.168 71.6256 48.048 71.1616 48.816C70.7136 49.568 70.0736 50.152 69.2416 50.568C68.4256 50.984 67.4816 51.192 66.4096 51.192ZM83.3812 39.096C83.3812 38.936 83.4612 38.856 83.6212 38.856H84.8452C85.0052 38.856 85.0852 38.936 85.0852 39.096V50.76C85.0852 50.92 85.0052 51 84.8452 51H83.6212C83.4612 51 83.3812 50.92 83.3812 50.76V49.728C83.3812 49.696 83.3652 49.672 83.3332 49.656C83.3012 49.64 83.2772 49.648 83.2612 49.68C82.5892 50.672 81.5252 51.168 80.0692 51.168C79.3012 51.168 78.5892 51.016 77.9332 50.712C77.2932 50.392 76.7812 49.936 76.3972 49.344C76.0292 48.752 75.8452 48.04 75.8452 47.208V39.096C75.8452 38.936 75.9252 38.856 76.0852 38.856H77.3092C77.4692 38.856 77.5492 38.936 77.5492 39.096V46.704C77.5492 47.616 77.8052 48.344 78.3172 48.888C78.8292 49.416 79.5252 49.68 80.4052 49.68C81.3172 49.68 82.0372 49.408 82.5652 48.864C83.1092 48.32 83.3812 47.6 83.3812 46.704V39.096ZM93.9444 38.688C95.2244 38.688 96.2404 39.064 96.9924 39.816C97.7604 40.568 98.1444 41.576 98.1444 42.84V50.76C98.1444 50.92 98.0644 51 97.9044 51H96.6804C96.5204 51 96.4404 50.92 96.4404 50.76V43.176C96.4404 42.296 96.1684 41.576 95.6244 41.016C95.0964 40.456 94.4084 40.176 93.5604 40.176C92.6804 40.176 91.9684 40.448 91.4244 40.992C90.8804 41.536 90.6084 42.248 90.6084 43.128V50.76C90.6084 50.92 90.5284 51 90.3684 51H89.1444C88.9844 51 88.9044 50.92 88.9044 50.76V39.096C88.9044 38.936 88.9844 38.856 89.1444 38.856H90.3684C90.5284 38.856 90.6084 38.936 90.6084 39.096V40.128C90.6084 40.16 90.6164 40.184 90.6324 40.2C90.6644 40.216 90.6884 40.208 90.7044 40.176C91.4084 39.184 92.4884 38.688 93.9444 38.688ZM42.3863 83.392C42.3383 83.472 42.3543 83.512 42.4343 83.512H49.9703C50.1303 83.512 50.2103 83.592 50.2103 83.752V84.76C50.2103 84.92 50.1303 85 49.9703 85H40.3943C40.2343 85 40.1543 84.92 40.1543 84.76V83.752C40.1543 83.64 40.1943 83.544 40.2743 83.464C40.8183 82.824 42.0423 81.32 43.9463 78.952L45.7223 76.744C47.2263 74.84 47.9783 73.36 47.9783 72.304C47.9783 71.456 47.6903 70.776 47.1143 70.264C46.5383 69.752 45.7863 69.496 44.8583 69.496C43.9463 69.496 43.2103 69.76 42.6503 70.288C42.0903 70.8 41.8183 71.48 41.8343 72.328V73.072C41.8343 73.232 41.7543 73.312 41.5943 73.312H40.3463C40.1863 73.312 40.1063 73.232 40.1063 73.072V72.112C40.1383 70.88 40.5943 69.888 41.4743 69.136C42.3703 68.384 43.4983 68.008 44.8583 68.008C45.8183 68.008 46.6663 68.192 47.4023 68.56C48.1383 68.928 48.7063 69.44 49.1063 70.096C49.5063 70.736 49.7063 71.464 49.7063 72.28C49.7063 73.64 48.9543 75.28 47.4503 77.2C46.6663 78.208 45.1543 80.064 42.9143 82.768L42.3863 83.392ZM58.3495 85.24C56.8135 85.24 55.5895 84.8 54.6775 83.92C53.7655 83.04 53.3095 81.864 53.3095 80.392V72.808C53.3095 71.336 53.7655 70.168 54.6775 69.304C55.5895 68.424 56.8135 67.984 58.3495 67.984C59.9015 67.984 61.1415 68.424 62.0695 69.304C62.9975 70.184 63.4615 71.352 63.4615 72.808V80.392C63.4615 81.864 62.9975 83.04 62.0695 83.92C61.1415 84.8 59.9015 85.24 58.3495 85.24ZM58.3495 83.752C59.3735 83.752 60.1975 83.456 60.8215 82.864C61.4455 82.272 61.7575 81.48 61.7575 80.488V72.736C61.7575 71.76 61.4455 70.976 60.8215 70.384C60.2135 69.792 59.3895 69.496 58.3495 69.496C57.3415 69.496 56.5335 69.792 55.9255 70.384C55.3175 70.976 55.0135 71.76 55.0135 72.736V80.488C55.0135 81.48 55.3175 82.272 55.9255 82.864C56.5335 83.456 57.3415 83.752 58.3495 83.752ZM68.8238 83.392C68.7758 83.472 68.7918 83.512 68.8718 83.512H76.4078C76.5678 83.512 76.6478 83.592 76.6478 83.752V84.76C76.6478 84.92 76.5678 85 76.4078 85H66.8318C66.6718 85 66.5918 84.92 66.5918 84.76V83.752C66.5918 83.64 66.6318 83.544 66.7118 83.464C67.2558 82.824 68.4798 81.32 70.3838 78.952L72.1598 76.744C73.6638 74.84 74.4158 73.36 74.4158 72.304C74.4158 71.456 74.1278 70.776 73.5518 70.264C72.9758 69.752 72.2238 69.496 71.2958 69.496C70.3838 69.496 69.6478 69.76 69.0878 70.288C68.5278 70.8 68.2558 71.48 68.2718 72.328V73.072C68.2718 73.232 68.1918 73.312 68.0318 73.312H66.7838C66.6238 73.312 66.5438 73.232 66.5438 73.072V72.112C66.5758 70.88 67.0318 69.888 67.9118 69.136C68.8078 68.384 69.9358 68.008 71.2958 68.008C72.2558 68.008 73.1038 68.192 73.8398 68.56C74.5758 68.928 75.1438 69.44 75.5438 70.096C75.9438 70.736 76.1438 71.464 76.1438 72.28C76.1438 73.64 75.3918 75.28 73.8878 77.2C73.1038 78.208 71.5918 80.064 69.3518 82.768L68.8238 83.392ZM89.563 78.832C89.723 78.832 89.803 78.912 89.803 79.072V80.128C89.803 80.288 89.723 80.368 89.563 80.368H88.531C88.467 80.368 88.435 80.4 88.435 80.464V84.76C88.435 84.92 88.355 85 88.195 85H86.971C86.811 85 86.731 84.92 86.731 84.76V80.464C86.731 80.4 86.699 80.368 86.635 80.368H79.459C79.299 80.368 79.219 80.288 79.219 80.128V79.24C79.219 79.16 79.243 79.064 79.291 78.952L84.211 68.368C84.259 68.256 84.347 68.2 84.475 68.2H85.747C85.827 68.2 85.883 68.232 85.915 68.296C85.963 68.344 85.971 68.408 85.939 68.488L81.163 78.712C81.147 78.744 81.147 78.776 81.163 78.808C81.179 78.824 81.203 78.832 81.235 78.832H86.635C86.699 78.832 86.731 78.8 86.731 78.736V74.872C86.731 74.712 86.811 74.632 86.971 74.632H88.195C88.355 74.632 88.435 74.712 88.435 74.872V78.736C88.435 78.8 88.467 78.832 88.531 78.832H89.563Z" fill="white"/>
</svg>
