<svg width="60" height="60" viewBox="0 0 60 60" fill="none" xmlns="http://www.w3.org/2000/svg">
<rect width="60" height="60" fill="#FB5B11"/>
<path d="M30.8008 20.8347C30.8008 20.6137 30.8886 20.4017 31.0448 20.2454C31.2011 20.0891 31.4131 20.0013 31.6341 20.0013C33.8435 20.0038 35.9617 20.8825 37.524 22.4448C39.0863 24.0071 39.965 26.1253 39.9674 28.3347C39.9674 28.5557 39.8796 28.7676 39.7234 28.9239C39.5671 29.0802 39.3551 29.168 39.1341 29.168C38.9131 29.168 38.7011 29.0802 38.5448 28.9239C38.3886 28.7676 38.3008 28.5557 38.3008 28.3347C38.2988 26.5672 37.5958 24.8726 36.346 23.6228C35.0961 22.373 33.4016 21.67 31.6341 21.668C31.4131 21.668 31.2011 21.5802 31.0448 21.4239C30.8886 21.2676 30.8008 21.0557 30.8008 20.8347ZM31.6341 25.0013C32.5182 25.0013 33.366 25.3525 33.9911 25.9776C34.6162 26.6028 34.9674 27.4506 34.9674 28.3347C34.9674 28.5557 35.0552 28.7676 35.2115 28.9239C35.3678 29.0802 35.5798 29.168 35.8008 29.168C36.0218 29.168 36.2337 29.0802 36.39 28.9239C36.5463 28.7676 36.6341 28.5557 36.6341 28.3347C36.6328 27.009 36.1056 25.738 35.1682 24.8006C34.2308 23.8632 32.9598 23.336 31.6341 23.3347C31.4131 23.3347 31.2011 23.4225 31.0448 23.5787C30.8886 23.735 30.8008 23.947 30.8008 24.168C30.8008 24.389 30.8886 24.601 31.0448 24.7573C31.2011 24.9135 31.4131 25.0013 31.6341 25.0013ZM39.2116 33.9505C39.6945 34.4348 39.9657 35.0908 39.9657 35.7747C39.9657 36.4586 39.6945 37.1146 39.2116 37.5988L38.4533 38.473C31.6283 45.0072 15.0199 28.403 21.4533 21.5563L22.4116 20.723C22.8964 20.2536 23.5465 19.9939 24.2214 20.0001C24.8962 20.0063 25.5414 20.278 26.0174 20.7563C26.0433 20.7822 27.5874 22.788 27.5874 22.788C28.0456 23.2694 28.3007 23.9088 28.2996 24.5733C28.2985 25.2379 28.0414 25.8765 27.5816 26.3563L26.6166 27.5697C27.1506 28.8673 27.9358 30.0465 28.927 31.0397C29.9182 32.033 31.0959 32.8205 32.3924 33.3572L33.6133 32.3863C34.0932 31.9269 34.7317 31.6701 35.396 31.6691C36.0604 31.6682 36.6996 31.9233 37.1808 32.3813C37.1808 32.3813 39.1858 33.9247 39.2116 33.9505ZM38.0649 35.1622C38.0649 35.1622 36.0708 33.628 36.0449 33.6022C35.8733 33.4319 35.6413 33.3364 35.3995 33.3364C35.1578 33.3364 34.9258 33.4319 34.7541 33.6022C34.7316 33.6255 33.0508 34.9647 33.0508 34.9647C32.9375 35.0548 32.8027 35.1139 32.6596 35.1361C32.5166 35.1583 32.3702 35.1429 32.2349 35.0913C30.5553 34.466 29.0297 33.4869 27.7615 32.2206C26.4932 30.9542 25.5119 29.43 24.8841 27.7513C24.8284 27.6142 24.8103 27.4647 24.8315 27.3183C24.8528 27.1718 24.9126 27.0337 25.0049 26.918C25.0049 26.918 26.3441 25.2363 26.3666 25.2147C26.5368 25.043 26.6323 24.811 26.6323 24.5692C26.6323 24.3275 26.5368 24.0955 26.3666 23.9238C26.3408 23.8988 24.8066 21.903 24.8066 21.903C24.6324 21.7468 24.4049 21.6631 24.171 21.6691C23.937 21.6752 23.7142 21.7705 23.5483 21.9355L22.5899 22.7688C17.8883 28.4222 32.2808 42.0163 37.2349 37.3347L37.9941 36.4597C38.172 36.2949 38.2789 36.0674 38.2921 35.8252C38.3053 35.5831 38.2238 35.3453 38.0649 35.1622Z" fill="white"/>
</svg>
