<?xml version="1.0" standalone="no"?>
<!DOCTYPE svg PUBLIC "-//W3C//DTD SVG 20010904//EN"
 "http://www.w3.org/TR/2001/REC-SVG-20010904/DTD/svg10.dtd">
<svg version="1.0" xmlns="http://www.w3.org/2000/svg"
 width="688.000000pt" height="688.000000pt" viewBox="0 0 688.000000 688.000000"
 preserveAspectRatio="xMidYMid meet">
<metadata>
Created by potrace 1.14, written by Peter Selinger 2001-2017
</metadata>
<g transform="translate(0.000000,688.000000) scale(0.100000,-0.100000)"
fill="#000000" stroke="none">
<path d="M2606 5790 c-47 -6 -59 -30 -39 -77 7 -18 13 -55 13 -83 0 -45 -2
-50 -22 -51 -76 -4 -132 -10 -143 -17 -11 -6 -69 -74 -150 -176 -16 -21 -40
-50 -53 -65 -13 -14 -39 -47 -59 -73 -21 -27 -41 -48 -45 -48 -4 0 -8 -4 -8
-10 0 -5 -6 -18 -14 -27 -55 -68 -192 -232 -210 -253 -12 -14 -75 -90 -140
-170 -109 -134 -168 -203 -260 -305 -19 -22 -36 -44 -36 -48 0 -5 -7 -15 -15
-23 -8 -9 -15 -22 -15 -30 0 -18 27 -20 205 -10 146 7 134 35 130 -291 -2
-153 -3 -282 -4 -286 -1 -5 -33 -7 -72 -4 -91 6 -200 -23 -285 -75 -34 -21
-71 -39 -84 -41 -14 -2 -46 10 -79 30 -145 88 -338 100 -515 32 -48 -18 -52
-18 -63 -2 -7 9 -14 15 -16 12 -57 -73 -59 -87 -23 -187 8 -23 15 -44 15 -47
2 -47 106 -316 186 -480 180 -372 396 -658 714 -948 28 -26 55 -47 58 -47 3 0
22 -15 43 -32 20 -18 45 -40 56 -48 34 -27 262 -180 269 -180 3 0 24 -12 48
-27 185 -118 567 -274 827 -338 88 -21 154 -35 200 -40 30 -3 66 -8 80 -10 14
-2 49 -7 79 -10 30 -4 62 -8 72 -10 92 -18 269 -23 414 -11 44 3 114 8 155 12
41 3 89 8 105 11 17 2 39 6 50 8 347 54 602 137 922 300 212 108 468 278 603
401 48 43 235 230 270 269 157 177 370 485 453 656 39 80 133 308 142 344 1 6
5 17 8 25 3 8 16 45 27 82 l21 67 -27 40 c-14 22 -31 38 -37 34 -14 -8 -67 -6
-92 4 -11 5 -85 42 -164 82 -177 90 -233 109 -320 109 -81 0 -162 -29 -260
-93 l-64 -41 -61 32 c-63 33 -154 60 -215 63 -19 1 -36 3 -37 4 -4 4 -5 84 -5
368 1 261 1 267 21 272 12 3 78 5 148 5 l127 -1 -3 24 c-3 24 -52 92 -124 171
-24 25 -52 57 -63 70 -46 54 -82 97 -115 138 -38 47 -221 272 -248 305 -9 11
-35 43 -57 70 -22 28 -44 55 -50 61 -5 6 -23 29 -40 50 -16 21 -64 79 -107
130 -64 77 -177 219 -257 323 -21 27 -40 29 -181 17 -184 -15 -207 -17 -260
-21 -128 -8 -236 -16 -395 -29 -33 -3 -100 -8 -150 -11 -49 -4 -110 -8 -135
-10 -199 -16 -260 -17 -261 -4 -3 30 3 55 17 70 10 11 12 28 8 55 -3 21 -7 40
-8 41 -5 5 -364 8 -400 3z m299 -122 c10 -10 14 -160 5 -184 -9 -22 -75 -107
-160 -204 -30 -34 -59 -69 -63 -76 -22 -39 -27 0 -27 224 0 131 2 241 4 243 7
7 234 4 241 -3z m1450 -211 c28 -29 64 -70 80 -91 38 -48 91 -115 113 -143 9
-13 28 -36 42 -51 14 -16 32 -37 40 -48 68 -86 146 -180 152 -182 5 -2 8 -7 8
-12 0 -9 29 -44 120 -145 30 -34 84 -103 119 -154 35 -50 88 -117 118 -147 29
-31 53 -57 53 -60 0 -2 -10 -4 -23 -4 -27 0 -79 57 -235 259 -110 142 -141
181 -210 265 -34 42 -101 121 -137 162 -11 13 -36 45 -55 73 -19 28 -38 50
-42 51 -5 0 -8 7 -8 15 0 8 -4 15 -8 15 -13 0 -192 225 -192 242 0 18 17 6 65
-45z m-309 10 c10 -10 -27 -55 -49 -60 -12 -3 -47 -3 -77 0 -30 2 -74 5 -97 6
-48 2 -48 2 20 38 46 25 61 28 125 25 40 -2 75 -6 78 -9z m213 -94 c21 -21 73
-85 116 -143 66 -88 233 -300 296 -375 33 -38 164 -202 189 -235 14 -18 30
-38 35 -44 11 -12 92 -110 115 -140 8 -10 22 -27 31 -36 15 -16 17 -71 17
-554 0 -398 -3 -536 -11 -537 -7 -1 -130 -3 -274 -4 -194 -2 -263 0 -264 8 -1
7 -3 185 -4 395 -2 242 -7 388 -13 394 -10 10 -561 12 -571 2 -3 -3 -6 -182
-7 -397 -2 -216 -3 -394 -3 -397 -1 -3 -127 -7 -281 -8 l-280 -2 -1 63 c-1 34
-2 269 -3 522 l-3 460 76 95 c42 52 83 104 93 115 22 25 252 308 293 360 17
21 35 43 40 49 6 6 28 34 50 61 21 28 44 55 50 60 6 6 26 30 45 55 19 25 37
47 40 50 3 3 28 34 55 68 28 35 65 80 82 100 18 21 33 40 33 45 0 17 24 5 59
-30z m-339 -60 c0 -21 -32 -50 -67 -60 -22 -7 -134 -12 -273 -12 -129 -1 -333
-2 -453 -4 -120 -2 -220 0 -223 4 -9 16 34 27 121 33 50 3 117 7 150 11 33 3
107 7 165 10 124 6 264 15 267 19 7 6 313 5 313 -1z m-125 -145 c9 -9 -26 -56
-45 -61 -15 -4 -224 -3 -667 3 -111 2 -200 7 -197 11 11 19 116 40 224 46 63
3 116 6 117 7 6 5 563 -1 568 -6z m-162 -137 c50 -1 58 -12 33 -46 -13 -18
-28 -19 -253 -18 -379 2 -475 5 -466 14 5 5 22 11 38 13 17 3 62 12 100 19 39
8 92 15 119 16 27 0 50 2 52 3 2 3 212 2 377 -1z m-55 -146 c-18 -40 -58 -49
-236 -49 -90 -1 -166 2 -169 7 -2 4 -9 4 -15 1 -6 -4 -45 -6 -87 -5 -137 4
-424 9 -509 10 -85 1 -107 15 -31 20 23 1 46 4 50 7 4 2 79 7 166 9 188 6 335
14 340 18 1 2 115 4 253 5 l249 1 -11 -24z m-108 -133 c-32 -56 15 -52 -626
-51 -546 0 -668 6 -482 24 34 3 64 8 67 10 6 3 79 11 186 21 33 3 215 7 405
11 190 3 346 6 347 7 1 0 26 -1 57 -2 49 -3 54 -6 46 -20z m-103 -148 c8 -24
-29 -37 -105 -37 -42 0 -93 3 -112 6 -19 4 -53 9 -75 13 -87 14 -90 15 -40 23
71 11 328 7 332 -5z m-1327 -293 c526 6 1213 2 1218 -6 4 -5 6 -188 5 -405 -2
-217 -3 -439 -3 -492 0 -89 -2 -97 -21 -103 -11 -4 -82 -6 -157 -5 -177 1
-209 3 -218 13 -4 4 -8 162 -8 350 l-1 342 37 40 c105 114 140 166 123 183 -4
4 -171 7 -372 7 l-366 0 -68 -70 c-108 -112 -144 -152 -146 -164 -2 -6 9 -13
25 -17 66 -15 62 -7 62 -117 1 -56 2 -200 3 -320 2 -144 -1 -224 -8 -233 -8
-12 -34 -15 -115 -14 -140 0 -140 0 -175 6 l-30 4 2 487 c1 269 2 493 3 500 0
15 31 20 95 17 28 -2 79 -3 115 -3z m2015 -299 c14 -10 15 -56 1 -64 -23 -15
-54 -8 -59 14 -11 41 26 74 58 50z m132 -2 c8 -1 -3 -60 -11 -61 -6 -1 -23 -2
-38 -3 -31 -3 -44 19 -33 55 6 19 24 21 82 9z m124 0 c1 -5 2 -17 2 -25 0 -40
-3 -43 -38 -40 -19 1 -37 4 -39 6 -5 5 -9 38 -7 57 1 15 80 17 82 2z m111 -14
c6 -31 -1 -43 -27 -47 -28 -5 -45 8 -45 35 0 29 7 36 41 36 20 0 28 -6 31 -24z
m-2121 -58 c4 -85 -3 -107 -33 -108 -10 0 -20 61 -14 90 2 14 5 28 5 33 1 4
10 7 21 7 14 0 20 -7 21 -22z m100 12 c6 -30 3 -103 -5 -109 -18 -15 -56 6
-57 31 -3 68 4 84 41 84 11 0 21 -3 21 -6z m150 -9 c1 -9 1 -19 1 -22 -1 -4
-2 -23 -4 -43 -2 -36 -6 -38 -53 -38 -50 0 -51 1 -54 52 -1 28 0 54 3 58 3 5
28 8 55 8 40 1 51 -3 52 -15z m103 -23 c-1 -13 -3 -36 -3 -51 -1 -26 -4 -28
-33 -25 -32 3 -33 5 -35 51 -1 41 2 49 20 56 30 12 54 -3 51 -31z m92 -74 c-5
-13 -23 -14 -43 -1 -8 5 -13 29 -13 57 0 46 2 49 28 52 26 3 27 1 30 -46 2
-27 1 -54 -2 -62z m1562 52 c5 -3 8 -22 7 -43 -1 -37 -2 -38 -41 -38 -37 0
-39 2 -42 33 -2 19 -1 39 1 46 5 12 57 14 75 2z m113 -13 c1 -31 -1 -56 -6
-61 -2 -2 -15 -5 -29 -6 -20 -3 -28 2 -32 19 -9 35 -1 59 21 67 37 12 45 8 46
-19z m-353 -20 c2 -21 -2 -40 -10 -44 -16 -11 -58 -12 -59 -1 0 4 -2 16 -4 27
-8 38 4 55 39 55 30 0 32 -3 34 -37z m119 -3 c2 -39 -9 -50 -49 -50 -28 0 -30
5 -30 55 0 33 3 36 40 33 35 -3 37 -5 39 -38z m-1889 -241 c2 -164 0 -198 -12
-202 -30 -12 -37 19 -36 165 1 123 4 199 9 231 0 5 9 7 19 5 15 -3 17 -22 20
-199z m104 179 c3 -7 4 -33 4 -57 -1 -35 -5 -45 -20 -47 -35 -5 -43 6 -45 62
-1 53 0 54 28 54 16 0 31 -6 33 -12z m149 -5 c2 -43 -4 -88 -12 -94 -15 -9
-89 -10 -90 -1 -4 21 -5 88 -2 97 2 6 26 11 53 13 42 2 50 0 51 -15z m100 0
c1 -10 2 -33 4 -51 2 -35 -5 -44 -42 -48 -24 -2 -24 -1 -27 71 -2 41 1 45 35
45 21 0 29 -5 30 -17z m95 -29 c3 -52 -4 -73 -21 -70 -21 3 -29 13 -33 43 -6
45 5 70 30 68 19 -1 23 -8 24 -41z m1310 3 c13 -13 14 -75 1 -80 -7 -2 -23 -4
-37 -3 -21 1 -25 6 -26 36 -1 19 0 40 3 46 4 12 48 13 59 1z m125 0 c0 -7 2
-27 4 -44 3 -28 0 -33 -18 -35 -12 0 -29 -2 -37 -2 -16 -1 -28 36 -22 70 3 16
12 21 38 22 20 1 34 -3 35 -11z m120 4 c11 -2 16 -46 8 -67 -5 -15 -16 -20
-40 -19 -31 1 -34 4 -37 34 -2 18 -1 38 1 45 4 10 38 13 68 7z m120 -35 c4
-24 2 -39 -5 -41 -6 -2 -18 -5 -27 -8 -24 -8 -39 12 -39 49 0 34 11 44 45 39
15 -1 22 -12 26 -39z m-2680 -83 c0 -21 2 -66 3 -101 1 -35 -2 -66 -8 -71 -6
-5 -51 -9 -101 -10 -81 -2 -140 -7 -140 -11 0 -6 -57 -12 -156 -15 -105 -4
-184 7 -204 27 -3 3 27 18 67 34 40 15 80 34 89 41 8 7 21 13 27 13 7 0 12 5
12 10 0 6 5 10 10 10 6 0 34 15 63 33 59 38 80 47 121 54 16 2 38 8 50 12 11
5 53 9 93 10 l73 2 1 -38z m659 2 c6 -7 9 -30 8 -51 -3 -34 -6 -38 -36 -41
-32 -4 -32 -4 -32 41 0 24 3 51 6 59 6 17 37 12 54 -8z m3549 -9 c35 -15 80
-37 100 -50 79 -50 158 -93 201 -111 64 -27 66 -31 25 -45 -43 -14 -165 -8
-263 13 -97 21 -178 20 -267 -3 -44 -12 -84 -23 -90 -24 -5 -1 -30 -8 -53 -15
-59 -17 -102 -15 -197 7 l-80 18 73 34 c39 18 72 36 72 41 0 4 8 10 18 13 9 3
33 21 53 40 52 50 132 96 175 102 21 2 39 6 41 8 14 14 136 -4 192 -28z
m-3413 14 c12 0 14 -11 12 -47 l-3 -48 -50 0 -50 0 -3 47 c-3 44 -2 47 25 51
15 2 34 2 41 0 8 -1 20 -3 28 -3z m116 -22 c8 -43 -6 -72 -35 -75 -21 -1 -28
4 -33 21 -8 33 -2 60 16 68 29 13 48 8 52 -14z m96 -22 c-1 -46 -14 -61 -43
-50 -10 4 -15 20 -15 43 0 44 5 51 36 51 21 0 23 -4 22 -44z m1318 -4 c7 -37
-1 -50 -34 -57 -25 -4 -36 9 -38 45 -2 33 9 46 40 46 21 0 27 -6 32 -34z m110
26 c6 -4 11 -22 10 -40 -1 -25 -6 -33 -26 -38 -48 -13 -62 8 -52 76 2 11 51
13 68 2z m135 -11 c3 -61 -9 -79 -48 -72 -34 6 -38 10 -37 42 1 42 10 51 49
51 29 0 35 -4 36 -21z m111 1 c7 -50 -2 -68 -37 -68 -31 0 -32 1 -33 45 -2 45
-2 45 32 45 28 0 35 -4 38 -22z m-2021 -105 c11 -81 7 -90 -38 -97 -20 -3 -31
30 -25 77 4 22 9 27 33 27 16 0 29 -3 30 -7z m150 -5 c4 -37 -2 -83 -12 -88
-9 -6 -36 -6 -85 -1 -5 0 -11 24 -11 51 l-2 50 55 0 c36 0 54 -4 55 -12z m101
-13 c1 -22 1 -55 -1 -68 0 -5 -15 -7 -33 -5 -24 2 -32 8 -35 28 -7 49 5 70 37
68 22 -2 30 -8 32 -23z m96 -26 c3 -39 0 -47 -17 -52 -25 -6 -37 9 -39 51 -3
42 4 54 31 50 18 -2 22 -11 25 -49z m1668 30 c6 -5 10 -23 9 -41 -1 -30 -4
-33 -35 -33 -31 0 -34 3 -37 33 -7 53 22 72 63 41z m-348 -38 l3 -42 -37 3
c-35 3 -38 5 -39 38 -2 40 9 51 45 47 22 -3 25 -9 28 -46z m113 41 c0 -4 2
-19 4 -33 4 -33 -6 -48 -35 -54 -30 -6 -47 9 -44 37 1 13 3 30 3 40 1 12 10
16 36 16 19 0 35 -3 36 -6z m136 -27 c4 -41 -7 -54 -47 -57 -33 -3 -35 -1 -38
30 -5 52 3 63 45 60 33 -3 37 -7 40 -33z m-2016 -133 c6 -32 -5 -52 -28 -52
-13 0 -15 8 -15 55 0 34 0 34 19 31 11 -2 20 -15 24 -34z m106 12 c3 -8 3 -24
-1 -37 -7 -29 -65 -38 -67 -10 -2 33 3 58 13 64 15 9 49 -2 55 -17z m144 12
c6 -65 6 -66 -16 -72 -43 -11 -88 0 -92 21 -8 48 3 60 57 61 29 0 50 -4 51
-10z m100 7 c6 -55 6 -73 1 -74 -4 0 -19 -3 -34 -5 -16 -3 -29 -1 -29 3 -4 24
-5 69 -2 76 2 4 17 7 34 7 16 0 29 -3 30 -7z m97 -35 c-3 -38 -6 -43 -28 -43
-22 0 -25 5 -26 35 -1 45 2 50 32 50 23 0 25 -3 22 -42z m1308 34 c12 -8 17
-71 6 -73 -46 -9 -62 -4 -68 23 -9 44 27 74 62 50z m125 -1 c8 -1 3 -60 -6
-69 -3 -4 -19 -7 -35 -8 -23 -1 -29 3 -32 25 -8 55 6 64 73 52z m134 -34 c2
-28 -1 -37 -14 -39 -9 0 -23 -2 -31 -3 -37 -4 -52 23 -41 77 0 3 20 6 42 5 41
-2 42 -3 44 -40z m105 4 c0 -32 -4 -39 -23 -43 -37 -7 -47 1 -47 43 0 38 1 39
35 39 34 0 35 -1 35 -39z m1811 -174 c11 -15 -2 -47 -20 -48 -9 0 -560 -2
-1226 -4 -665 -1 -1214 -3 -1220 -4 -5 -1 13 -10 40 -20 103 -38 201 -72 226
-80 30 -9 205 -7 264 3 22 4 51 9 65 12 201 36 344 16 555 -76 22 -10 92 -40
155 -68 266 -116 305 -123 678 -123 145 0 242 -4 242 -10 0 -5 -9 -9 -20 -9
-26 0 -24 0 -60 -10 -59 -17 -359 -34 -383 -22 -4 2 -39 5 -78 7 -39 2 -94 9
-122 15 -29 5 -61 12 -73 14 -48 9 -117 33 -249 84 -345 134 -376 138 -670
106 -89 -9 -237 -10 -292 0 -46 7 -161 45 -215 69 -89 41 -218 89 -279 103
-13 3 -586 7 -1274 9 -687 2 -1298 4 -1357 4 -100 1 -107 2 -113 22 -5 14 -2
25 6 30 19 12 5412 8 5420 -4z m-5021 -114 c47 -14 92 -26 100 -27 9 -1 20 -4
25 -7 11 -6 102 -3 150 4 17 3 57 10 90 16 33 5 80 13 105 16 25 3 59 9 75 11
63 12 95 14 255 18 159 5 220 1 220 -13 0 -4 -19 -7 -42 -7 -159 -4 -236 -14
-443 -59 -158 -35 -192 -39 -305 -39 -110 0 -132 4 -260 46 -52 18 -98 33
-102 34 -5 1 -10 3 -13 4 -3 1 -8 3 -12 4 -5 1 -21 6 -38 11 l-30 8 30 7 c44
9 99 1 195 -27z m1495 -45 c28 -5 102 -29 165 -53 175 -66 220 -75 335 -70 55
2 113 7 129 10 98 20 291 7 393 -26 139 -45 245 -91 316 -136 115 -74 245
-139 313 -157 27 -6 72 -11 99 -10 218 11 295 12 330 5 22 -5 66 -12 99 -15
32 -3 60 -7 63 -9 2 -3 -58 -7 -134 -10 -114 -5 -172 -10 -190 -16 -68 -23
-254 -33 -313 -18 -8 2 -28 7 -45 12 -16 4 -127 55 -245 112 -303 148 -383
175 -525 175 -49 0 -117 -3 -150 -7 -33 -3 -108 -7 -166 -10 -131 -5 -184 8
-334 80 -163 78 -190 86 -280 86 -54 -1 -67 -3 -135 -21 -25 -7 -53 -14 -62
-15 -10 -2 -23 -7 -28 -10 -5 -3 -19 -8 -30 -11 -11 -2 -30 -7 -42 -10 -13 -3
-42 -7 -64 -8 -23 -2 -46 -5 -50 -8 -14 -7 -244 -2 -251 6 -11 11 0 14 67 19
36 3 65 6 65 7 0 1 16 3 35 6 19 2 71 13 115 24 44 11 89 22 100 25 11 3 51
14 90 25 38 11 86 24 105 28 48 12 165 12 225 0z m-855 -122 c0 -3 -4 -8 -10
-11 -5 -3 -10 -1 -10 4 0 6 5 11 10 11 6 0 10 -2 10 -4z m40 -6 c0 -5 -7 -10
-16 -10 -8 0 -12 5 -9 10 3 6 10 10 16 10 5 0 9 -4 9 -10z m-45 -161 c218 -60
345 -70 520 -37 67 12 159 20 235 21 152 2 190 -9 430 -126 168 -81 260 -118
347 -138 74 -17 85 -18 120 -21 18 -1 33 -5 33 -8 0 -3 19 -5 43 -6 37 0 72
-4 212 -19 17 -1 45 -3 64 -4 59 -2 26 -12 -55 -17 -195 -13 -373 -12 -440 2
-80 16 -140 32 -169 46 -12 5 -27 10 -35 12 -19 4 -67 24 -285 121 -27 12 -97
36 -117 41 -5 1 -9 2 -10 3 -3 3 -14 5 -88 19 -62 12 -164 4 -238 -17 -18 -5
-35 -10 -37 -10 -6 1 -80 -11 -110 -17 -46 -10 -155 -4 -225 11 -41 9 -82 18
-90 20 -8 1 -42 11 -75 21 -33 10 -64 19 -70 20 -5 1 -45 11 -88 21 -43 11
-97 18 -120 16 -191 -12 -249 -11 -306 7 -33 10 -63 15 -67 11 -4 -3 -4 -1 -1
5 3 6 22 11 42 12 19 1 74 8 123 17 119 21 134 24 139 29 3 2 44 4 91 4 70 0
114 -8 227 -39z"/>
<path d="M4081 5141 c-13 -4 -26 -15 -28 -26 -3 -23 -3 -299 1 -360 l2 -40
124 -3 c71 -1 127 1 133 7 8 8 12 232 8 393 l-1 26 -101 1 c-56 1 -104 3 -108
5 -3 1 -17 0 -30 -3z"/>
</g>
</svg>
