<svg id="Layer_1" data-name="Layer 1" xmlns="http://www.w3.org/2000/svg" viewBox="0 0 172.48 172.48"><defs><style>.cls-1{fill:#d76843;}</style></defs><title>Untitled-1</title><path class="cls-1" d="M464.36,204.83c3.5,0,6.71,0,9.93,0,2.8,0,4.29,1.12,4.35,3.19s-1.63,3.42-4.45,3.42l-99.88.05q-31.53,0-63.08-.05a10.24,10.24,0,0,1-2.29-.09,3.19,3.19,0,0,1-2.77-3.46,3,3,0,0,1,3.16-3c3.63-.06,7.27,0,11.19,0v-3.31c0-21.12,0-42.23,0-63.35a6,6,0,0,1,3.53-6.07c19.67-10.8,39.25-21.77,58.91-32.61,1.87-1,2.65-2.18,2.54-4.37-.2-4,0-8-.08-12a4.78,4.78,0,0,1,2.8-4.69q35-19.18,69.95-38.46c3.79-2.09,6.16-.74,6.16,3.55q0,32.82,0,65.63,0,42,.05,84Zm-7-51.06h-2.86c-7.15,0-14.3,0-21.46,0-3.18,0-4.35-1.13-4.36-4.25q0-9.82,0-19.66c0-3.21,1.06-4.27,4.3-4.28,7.15,0,14.3,0,21.45,0h2.83V110.44h-3c-7.07,0-14.14,0-21.2,0-3.37,0-4.38-1-4.38-4.44q0-9.7,0-19.41c0-3.18,1.13-4.3,4.28-4.31,7.24,0,14.47,0,21.71,0h2.69V48.08c-1.13.59-2,1-2.9,1.5-15.2,8.34-30.38,16.72-45.61,25a3.84,3.84,0,0,0-2.34,3.92q.1,61.68.06,123.37c0,.89.09,1.79.13,2.73h50.56V197.1c-8.05,0-15.87,0-23.69,0-3.83,0-4.89-1.05-4.9-4.81q0-9.32,0-18.64c0-3.91,1-4.91,5.05-4.92h20.94c.9,0,1.79-.08,2.7-.12ZM341.67,204.63h43.51V197.1c-8.12,0-16,0-23.93,0-3.5,0-4.6-1.12-4.61-4.55q0-9.57,0-19.15c0-3.61,1.07-4.66,4.75-4.66,7.06,0,14.13,0,21.19,0h2.6V153.77c-8.29,0-16.37,0-24.44,0-2.89,0-4.07-1.16-4.09-4q0-10.08,0-20.17c0-2.94,1.05-4,4-4,7.24,0,14.47,0,21.7,0h2.9V105.92c-.93.47-1.67.83-2.39,1.22-12.92,7.18-25.83,14.39-38.8,21.49a4,4,0,0,0-2.42,4.13c.07,23,0,46,0,68.94Zm58.12,0v-125c-2,1.12-3.76,2.19-5.58,3a3.32,3.32,0,0,0-2.15,3.54c.09,10.21,0,20.42.05,30.63,0,11.23.14,22.46.13,33.69,0,17.18-.09,34.37-.13,51.56,0,.82.09,1.64.14,2.54Zm-64.93-70.82a52.41,52.41,0,0,1-4.75,2.56c-2.28.94-2.94,2.42-2.92,4.9.11,20,.06,40,.06,59.94v3.38h7.61Zm28.48,56.39h21.85V175.6H363.34Zm72.11,0h21.88V175.58H435.45Zm0-86.65h22V89h-22ZM385.26,132.4H363.41V147h21.85Zm72.08,14.67V132.34H435.53v14.73Z" transform="translate(-306.16 -39.01)"/></svg>